<?xml version="1.0" encoding="UTF-8" standalone="no"?>
<svg
   width="455.63663mm"
   height="62.24625mm"
   viewBox="0 0 455.63662 62.86885"
   version="1.1"
   id="svg20"
   xmlns="http://www.w3.org/2000/svg"
   xmlns:svg="http://www.w3.org/2000/svg">
  <defs
     id="defs1">
    <style
       id="style1">.f88f92cd-f2c7-4562-a65f-6026ec9eaf76{fill:#61a60e;}.a0a4e4d0-2ce7-4540-af1b-7fd3cb2de386,.b2879e80-c346-4e5e-9063-7e06ee78ce50,.f56e197f-a49d-4234-b774-5cfaa2101d9f,.f88f92cd-f2c7-4562-a65f-6026ec9eaf76{fill-rule:evenodd;}.f56e197f-a49d-4234-b774-5cfaa2101d9f{fill:#fff;}.a0a4e4d0-2ce7-4540-af1b-7fd3cb2de386{fill:#9e9b9b;}.b2879e80-c346-4e5e-9063-7e06ee78ce50{fill:#1e1c1a;}</style>
  </defs>
  <g
     id="b4a985f2-1089-45b8-ba40-5bd3d71c957a"
     data-name="Grafisme"
     transform="translate(-17.700559,-20.104793)">
    <path
       class="f88f92cd-f2c7-4562-a65f-6026ec9eaf76"
       d="M 88.31,31.73 C 83.47,17.54 14.78,12.38 15.42,39.47 16.06,66.56 28,85.59 46.38,83 64.76,80.41 94.12,50.44 88.31,31.73"
       id="path1" />
    <path
       class="f56e197f-a49d-4234-b774-5cfaa2101d9f"
       d="m 31.34,56.06 a 2.43,2.43 0 0 0 1.3,-0.44 2.89,2.89 0 0 0 1.07,-1.07 l 7.88,-13.62 a 1.62,1.62 0 0 0 0.22,-0.76 c 0,-0.5 -0.29,-0.76 -0.88,-0.76 h -7.57 a 2.54,2.54 0 0 0 -1.32,0.45 2.87,2.87 0 0 0 -1,1.07 l -7.93,13.62 a 1.59,1.59 0 0 0 -0.22,0.76 c 0,0.5 0.3,0.75 0.88,0.75 z"
       id="path2" />
    <path
       class="f56e197f-a49d-4234-b774-5cfaa2101d9f"
       d="m 55.33,39.41 a 3.31,3.31 0 0 1 1.07,-1.07 2.5,2.5 0 0 1 1.32,-0.44 3.74,3.74 0 0 0 1.2,-0.22 c 0.55,-0.19 0.82,-0.44 0.82,-0.76 0,-0.32 -0.38,-0.53 -1.13,-0.53 -0.59,0 -0.89,-0.26 -0.89,-0.76 a 1.64,1.64 0 0 1 0.23,-0.76 l 1.76,-3 a 1.62,1.62 0 0 0 0.22,-0.76 c 0,-0.51 -0.28,-0.76 -0.85,-0.76 h -7.57 a 2.65,2.65 0 0 0 -1.35,0.44 3,3 0 0 0 -1,1.08 L 34.48,57.2 a 3.27,3.27 0 0 0 -0.48,1.7 1.47,1.47 0 0 0 0.19,0.79 l 4.16,7.09 a 0.57,0.57 0 0 0 0.48,0.32 c 0.35,0 0.69,-0.27 1,-0.82 z"
       id="path3" />
    <path
       class="f56e197f-a49d-4234-b774-5cfaa2101d9f"
       d="m 59.1,39.41 a 2.49,2.49 0 0 0 -1.33,0.45 3,3 0 0 0 -1,1.07 l -9.56,16.46 a 2.72,2.72 0 0 0 -0.38,1.42 1.69,1.69 0 0 0 0.22,0.88 l 4.16,7.09 a 0.57,0.57 0 0 0 0.48,0.32 c 0.36,0 0.69,-0.27 1,-0.82 l 5,-8.7 a 3.05,3.05 0 0 1 1,-1.08 2.64,2.64 0 0 1 1.33,-0.44 H 70.67 A 2.47,2.47 0 0 0 72,55.62 2.89,2.89 0 0 0 73.07,54.55 L 81,40.93 a 1.62,1.62 0 0 0 0.22,-0.76 c 0,-0.5 -0.29,-0.76 -0.88,-0.76 z M 63.36,53 a 3.35,3.35 0 0 1 -1.08,1.07 2.5,2.5 0 0 1 -1.32,0.44 c -0.59,0 -0.88,-0.25 -0.88,-0.76 A 1.42,1.42 0 0 1 60.33,53 l 6.12,-10.6 a 2.87,2.87 0 0 1 1,-1.07 2.65,2.65 0 0 1 1.35,-0.44 c 0.57,0 0.85,0.25 0.85,0.75 a 1.56,1.56 0 0 1 -0.22,0.76 z"
       id="path4" />
    <polygon
       class="b2879e80-c346-4e5e-9063-7e06ee78ce50"
       points="105.45,57.05 109.85,57.05 112.58,41.52 108.17,41.52 "
       id="polygon15"
       transform="matrix(3.3898037,0,0,3.3898037,-262.5294,-115.52726)"
       style="fill:#1e1c1a;fill-rule:evenodd;stroke-width:0.295002" />
    <polygon
       class="b2879e80-c346-4e5e-9063-7e06ee78ce50"
       points="128.43,41.52 124.14,41.52 122.64,49.83 119.89,41.52 115.05,41.52 112.35,57.05 116.62,57.05 118.01,49.22 120.85,57.05 125.71,57.05 "
       id="polygon16"
       transform="matrix(3.3898037,0,0,3.3898037,-262.5294,-115.52726)"
       style="fill:#1e1c1a;fill-rule:evenodd;stroke-width:0.295002" />
    <polygon
       class="b2879e80-c346-4e5e-9063-7e06ee78ce50"
       points="137.2,45.24 140.86,45.24 141.52,41.52 129.86,41.52 129.21,45.24 132.82,45.24 130.75,57.05 135.16,57.05 "
       id="polygon17"
       transform="matrix(3.3898037,0,0,3.3898037,-262.5294,-115.52726)"
       style="fill:#1e1c1a;fill-rule:evenodd;stroke-width:0.295002" />
    <polygon
       class="b2879e80-c346-4e5e-9063-7e06ee78ce50"
       points="151.62,47.19 146.31,47.19 146.67,45.24 152.67,45.24 153.35,41.52 142.92,41.52 140.22,57.05 150.58,57.05 151.21,53.33 145.22,53.33 145.67,50.92 150.99,50.92 "
       id="polygon18"
       transform="matrix(3.3898037,0,0,3.3898037,-262.5294,-115.52726)"
       style="fill:#1e1c1a;fill-rule:evenodd;stroke-width:0.295002" />
    <path
       class="b2879e80-c346-4e5e-9063-7e06ee78ce50"
       d="m 254.99195,77.861052 h 14.84734 l 2.71184,-15.457506 h 8.84739 c 7.99994,0 13.25414,-2.644046 16.40665,-7.559262 a 43.118305,43.118305 0 0 0 4.77962,-18.847309 c 0,-6.101647 -2.71184,-10.779577 -14.40665,-10.779577 h -24.03372 z m 30.50824,-29.796376 c -0.84745,1.55931 -2.23728,1.864392 -4.40675,1.864392 h -6.54232 l 2.16947,-12.101599 h 5.322 c 4.13555,0 5.08471,0.84745 5.08471,2.610148 a 20.338824,20.338824 0 0 1 -1.62711,7.627059"
       id="path18"
       style="fill:#1e1c1a;fill-rule:evenodd;stroke-width:1" />
    <polygon
       class="b2879e80-c346-4e5e-9063-7e06ee78ce50"
       points="173.43,41.52 169.02,41.52 166.32,57.05 176.13,57.05 176.77,53.26 171.32,53.26 "
       id="polygon19"
       transform="matrix(3.3898037,0,0,3.3898037,-262.5294,-115.52726)"
       style="fill:#1e1c1a;fill-rule:evenodd;stroke-width:0.295002" />
    <path
       class="b2879e80-c346-4e5e-9063-7e06ee78ce50"
       d="m 385.87228,77.861052 -6.983,-52.643654 H 361.1945 l -26.20317,52.643654 h 15.32191 l 4.33895,-9.627043 h 14.67785 l 0.77965,9.627043 z M 368.3131,56.301899 h -8.06774 l 6.983,-15.898179 z"
       id="path19"
       style="fill:#1e1c1a;fill-rule:evenodd;stroke-width:1" />
    <path
       class="b2879e80-c346-4e5e-9063-7e06ee78ce50"
       d="m 429.29567,56.708676 c 0,-7.491467 -4.06777,-9.86433 -12.77957,-12.033805 -5.0847,-1.152532 -7.22028,-1.830493 -7.22028,-4.067764 a 4.7796235,4.7796235 0 0 1 0.61016,-2.40676 c 0.77966,-1.152533 2.23728,-1.22033 4.91523,-1.22033 a 58.101238,58.101238 0 0 1 14.71174,2.305067 l 3.69489,-13.559215 a 97.389065,97.389065 0 0 0 -17.49139,-1.525412 c -8.54231,0 -14.06768,1.898289 -17.45749,5.830463 a 22.576094,22.576094 0 0 0 -4.40674,14.576156 c 0,8.067733 4.33895,10.169411 12.77955,12.304988 5.2542,1.084737 7.32199,1.932189 7.32199,4.237254 a 7.1185881,7.1185881 0 0 1 -0.98305,3.389804 c -0.77966,0.779655 -2.16947,1.38982 -6.16944,1.38982 A 45.28778,45.28778 0 0 1 391.87223,63.38659 l -3.83048,12.474478 a 52.304674,52.304674 0 0 0 17.55918,2.542352 c 9.22028,0 15.86428,-1.288125 19.86425,-7.152486 a 29.864172,29.864172 0 0 0 3.83049,-14.84734"
       id="path20"
       style="fill:#1e1c1a;fill-rule:evenodd;stroke-width:1" />
    <polygon
       class="b2879e80-c346-4e5e-9063-7e06ee78ce50"
       points="213.81,45.24 217.47,45.24 218.13,41.52 206.48,41.52 205.82,45.24 209.43,45.24 207.36,57.05 211.77,57.05 "
       id="polygon20"
       transform="matrix(3.3898037,0,0,3.3898037,-262.5294,-115.52726)"
       style="fill:#1e1c1a;fill-rule:evenodd;stroke-width:0.295002" />
  </g>
</svg>
