<?xml version="1.0" encoding="UTF-8" standalone="no"?>
<svg
   width="2.5999076cm"
   height="2.2306361cm"
   viewBox="0 0 73.72217 63.295947"
   version="1.1"
   id="svg20"
   xmlns="http://www.w3.org/2000/svg"
   xmlns:svg="http://www.w3.org/2000/svg">
  <defs
     id="defs1">
    <style
       id="style1">.f88f92cd-f2c7-4562-a65f-6026ec9eaf76{fill:#61a60e;}.a0a4e4d0-2ce7-4540-af1b-7fd3cb2de386,.b2879e80-c346-4e5e-9063-7e06ee78ce50,.f56e197f-a49d-4234-b774-5cfaa2101d9f,.f88f92cd-f2c7-4562-a65f-6026ec9eaf76{fill-rule:evenodd;}.f56e197f-a49d-4234-b774-5cfaa2101d9f{fill:#fff;}.a0a4e4d0-2ce7-4540-af1b-7fd3cb2de386{fill:#9e9b9b;}.b2879e80-c346-4e5e-9063-7e06ee78ce50{fill:#1e1c1a;}</style>
  </defs>
  <g
     id="b4a985f2-1089-45b8-ba40-5bd3d71c957a"
     data-name="Grafisme"
     transform="translate(-15.309869,-20.137623)">
    <path
       id="path1"
       style="fill:#ffffff;fill-opacity:1"
       class="f88f92cd-f2c7-4562-a65f-6026ec9eaf76"
       d="m 49.810545,20.119883 c -17.6975,0.3225 -34.710469,5.805046 -34.390469,19.350046 0.64,27.09 12.579194,46.120271 30.959194,43.530271 18.38,-2.59 47.740475,-32.559703 41.930475,-51.269703 -2.42,-7.095 -20.8017,-11.933114 -38.4992,-11.610614 z m 1.699507,10.230772 h 7.569335 c 0.57,0 0.850487,0.249573 0.850487,0.759573 a 1.62,1.62 0 0 1 -0.219954,0.759573 l -1.759628,3.000166 a 1.64,1.64 0 0 0 -0.230218,0.759573 c 0,0.5 0.300078,0.761039 0.890078,0.761039 0.75,0 1.130562,0.209355 1.130562,0.529355 0,0.32 -0.27116,0.569573 -0.82116,0.759573 a 3.74,3.74 0 0 1 -1.19948,0.219953 2.5,2.5 0 0 0 -1.319721,0.439907 3.31,3.31 0 0 0 -1.070441,1.070441 L 39.83052,66.279332 c -0.31,0.55 -0.650056,0.82116 -1.000056,0.82116 A 0.57,0.57 0 0 1 38.349499,66.77936 l -4.160054,-7.089836 a 1.47,1.47 0 0 1 -0.18916,-0.7889 3.27,3.27 0 0 1 0.479498,-1.700974 L 49.159482,31.869801 a 3,3 0 0 1 1.000056,-1.079239 2.65,2.65 0 0 1 1.350514,-0.439907 z m -18.150565,9.059153 h 7.5708 c 0.59,0 0.879814,0.259573 0.879814,0.759573 a 1.62,1.62 0 0 1 -0.219953,0.761039 l -7.880202,13.619523 a 2.89,2.89 0 0 1 -1.070441,1.070441 2.43,2.43 0 0 1 -1.299192,0.439907 h -7.570801 c -0.58,0 -0.879814,-0.250775 -0.879814,-0.750775 a 1.59,1.59 0 0 1 0.219954,-0.759573 L 31.03971,40.93042 a 2.87,2.87 0 0 1 1.000055,-1.07044 2.54,2.54 0 0 1 1.319722,-0.450172 z m 25.740429,0 h 21.240179 c 0.59,0 0.879814,0.259573 0.879814,0.759573 a 1.62,1.62 0 0 1 -0.219953,0.761039 l -7.930058,13.619523 a 2.89,2.89 0 0 1 -1.070441,1.070441 2.47,2.47 0 0 1 -1.329985,0.439907 H 60.019321 a 2.64,2.64 0 0 0 -1.329985,0.439907 3.05,3.05 0 0 0 -1.000056,1.079238 l -4.99881,8.699896 c -0.31,0.55 -0.640056,0.82116 -1.000056,0.82116 A 0.57,0.57 0 0 1 51.209449,66.77936 l -4.160054,-7.089836 a 1.69,1.69 0 0 1 -0.219954,-0.879814 2.72,2.72 0 0 1 0.381253,-1.419434 l 9.55918,-16.459856 a 3,3 0 0 1 1.000056,-1.07044 2.49,2.49 0 0 1 1.329986,-0.450172 z m 9.699951,1.479554 a 2.65,2.65 0 0 0 -1.350515,0.439907 2.87,2.87 0 0 0 -1.000056,1.070441 l -6.119107,10.600294 a 1.42,1.42 0 0 0 -0.250747,0.749308 c 0,0.51 0.291281,0.761039 0.881281,0.761039 a 2.5,2.5 0 0 0 1.319721,-0.439907 3.35,3.35 0 0 0 1.079238,-1.07044 L 69.4304,42.39971 a 1.56,1.56 0 0 0 0.219954,-0.759573 c 0,-0.5 -0.280487,-0.750775 -0.850487,-0.750775 z" />
  </g>
</svg>
